<?xml version="1.0" standalone="no"?>
<!DOCTYPE svg PUBLIC "-//W3C//DTD SVG 20010904//EN"
 "http://www.w3.org/TR/2001/REC-SVG-20010904/DTD/svg10.dtd">
<svg version="1.0" xmlns="http://www.w3.org/2000/svg"
 width="500.000000pt" height="500.000000pt" viewBox="0 0 500.000000 500.000000"
 preserveAspectRatio="xMidYMid meet">
<metadata>
Created by potrace 1.14, written by Peter Selinger 2001-2017
</metadata>
<g transform="translate(0.000000,500.000000) scale(0.100000,-0.100000)"
fill="#000000" stroke="none">
<path d="M2375 3572 c-55 -33 -190 -112 -300 -176 -110 -64 -203 -123 -207
-129 -4 -7 -8 -172 -8 -368 0 -269 3 -359 13 -372 6 -8 102 -68 212 -133 110
-64 241 -141 291 -170 57 -34 103 -54 122 -54 29 0 94 36 563 311 59 34 67 42
73 76 9 57 7 276 -3 292 -7 11 -19 9 -63 -16 l-53 -30 -5 -96 c-4 -79 -9 -100
-25 -116 -17 -17 -142 -92 -386 -232 -37 -21 -77 -41 -90 -44 -19 -5 -79 26
-269 137 l-245 143 -3 296 c-2 272 -1 297 15 311 39 35 469 278 492 278 13 0
108 -49 210 -108 102 -60 207 -121 233 -136 26 -14 52 -35 58 -46 5 -10 10
-75 10 -144 0 -85 4 -126 11 -126 24 0 108 56 113 75 11 40 6 240 -7 264 -15
29 -576 360 -622 367 -23 3 -53 -9 -130 -54z"/>
<path d="M2325 3284 c-83 -48 -163 -95 -178 -106 -52 -37 -37 -53 153 -165 96
-56 184 -103 195 -103 10 0 78 34 151 75 73 41 135 75 138 75 4 0 5 -75 4
-167 l-3 -168 -135 -77 c-74 -43 -143 -78 -154 -78 -10 0 -78 35 -152 77
l-133 77 -3 116 -3 115 -54 32 c-30 18 -58 30 -62 27 -5 -3 -9 -86 -9 -184 l0
-178 43 -25 c23 -13 114 -65 201 -115 88 -51 166 -92 174 -92 14 0 200 104
347 193 l70 42 3 225 c1 124 0 234 -2 245 -5 19 -104 85 -127 85 -6 0 -67 -34
-138 -75 -70 -41 -138 -75 -151 -75 -26 0 -150 66 -150 80 0 9 97 69 133 83 9
4 32 -1 50 -9 33 -16 35 -15 90 16 31 18 57 36 57 41 0 14 -153 99 -180 99
-14 0 -93 -39 -175 -86z"/>
<path d="M1347 1803 c-4 -3 -7 -24 -7 -45 0 -36 2 -38 30 -38 l30 0 0 -74 c0
-74 0 -75 -27 -78 -25 -3 -28 -7 -31 -45 l-3 -43 111 0 111 0 -3 43 c-3 38 -6
42 -30 45 -28 3 -28 4 -28 78 l0 74 30 0 c28 0 30 2 30 39 0 26 -5 41 -16 45
-21 8 -189 8 -197 -1z"/>
<path d="M1643 1804 c-7 -3 -13 -23 -13 -45 l0 -39 45 0 45 0 0 -120 0 -120
50 0 50 0 0 120 0 120 41 0 40 0 -3 43 -3 42 -120 2 c-66 1 -126 -1 -132 -3z"/>
<path d="M2513 1803 c-9 -3 -13 -35 -13 -108 0 -120 -4 -135 -35 -135 -25 0
-35 17 -35 61 0 28 -2 29 -45 29 l-45 0 0 -63 c0 -50 4 -68 19 -81 47 -43 175
-43 218 0 22 22 23 30 23 157 0 114 -2 136 -16 141 -18 7 -53 7 -71 -1z"/>
<path d="M2744 1801 c-44 -19 -54 -48 -54 -164 0 -100 2 -110 23 -131 49 -49
217 -39 244 14 8 15 13 65 13 127 0 93 -2 104 -24 130 -22 25 -31 28 -103 30
-43 2 -88 -1 -99 -6z m117 -81 c6 0 9 -33 7 -77 l-3 -78 -35 0 -35 0 -3 77
c-2 66 0 77 15 81 10 3 24 3 31 1 8 -2 18 -4 23 -4z"/>
<path d="M3073 1804 c-10 -4 -13 -44 -13 -149 0 -79 3 -150 6 -159 5 -13 24
-16 110 -16 151 0 169 13 162 115 -2 39 -8 52 -25 60 -16 8 -19 15 -12 26 5 8
9 30 9 50 0 59 -25 73 -133 76 -51 1 -98 0 -104 -3z m147 -99 c0 -20 -5 -25
-24 -25 -15 0 -26 7 -29 19 -6 25 0 31 30 31 18 0 23 -5 23 -25z m20 -120 c0
-22 -4 -25 -37 -25 -34 0 -38 3 -38 25 0 22 4 25 38 25 33 0 37 -3 37 -25z"/>
<path d="M3475 1800 c-43 -13 -55 -36 -55 -100 0 -70 17 -88 89 -97 82 -9 85
-37 4 -35 -85 1 -93 -3 -93 -49 l0 -41 106 4 c97 3 107 5 125 27 13 16 19 39
19 75 0 70 -21 92 -95 101 -37 5 -55 12 -55 21 0 11 16 14 66 14 l65 0 -3 43
-3 42 -70 2 c-38 1 -83 -2 -100 -7z"/>
<path d="M1993 1524 c-7 -3 -13 -23 -13 -45 0 -48 8 -51 155 -47 l110 3 0 45
0 45 -120 2 c-66 1 -126 -1 -132 -3z"/>
</g>
</svg>
